<svg width="25" height="21" viewBox="0 0 25 21" fill="none" xmlns="http://www.w3.org/2000/svg">
<path d="M7.92643e-09 5.97849L12.1068 12.443C12.2283 12.5078 12.3631 12.5417 12.5 12.5417C12.6369 12.5417 12.7717 12.5078 12.8932 12.443L25 5.97965V17.2088C25.0001 18.1773 24.6391 19.1091 23.9913 19.8131C23.3434 20.5171 22.4577 20.9398 21.5159 20.9947L21.3068 21.0005H3.69318C2.74984 21.0006 1.84224 20.63 1.15656 19.9649C0.470872 19.2997 0.0590894 18.3904 0.00568196 17.4235L7.92643e-09 17.2088V5.97849ZM3.69318 0.000488289H21.3068C22.2502 0.000424877 23.1578 0.370968 23.8434 1.03611C24.5291 1.70124 24.9409 2.61055 24.9943 3.57749L25 3.79215V4.00682L12.5 10.6802L7.92643e-09 4.00682V3.79215C-6.17576e-05 2.82366 0.360857 1.89186 1.00872 1.18789C1.65658 0.483916 2.54227 0.0611534 3.48409 0.00632176L3.69318 0.000488289Z" fill="url(#paint0_linear)"/>
<defs>
<linearGradient id="paint0_linear" x1="2.3224" y1="7.14632" x2="23.9661" y2="7.76268" gradientUnits="userSpaceOnUse">
<stop stop-color="#F5BE87"/>
<stop offset="1" stop-color="#CA8E5A"/>
</linearGradient>
</defs>
</svg>
