<svg width="21" height="21" viewBox="0 0 21 21" fill="none" xmlns="http://www.w3.org/2000/svg">
<path d="M18.375 21H2.625C1.90039 21 1.28174 20.7437 0.769043 20.231C0.256348 19.7183 0 19.0996 0 18.375V2.625C0 1.90039 0.256348 1.28174 0.769043 0.769043C1.28174 0.256348 1.90039 0 2.625 0H18.375C19.0996 0 19.7183 0.256348 20.231 0.769043C20.7437 1.28174 21 1.90039 21 2.625V18.375C21 19.0996 20.7437 19.7183 20.231 20.231C19.7183 20.7437 19.0996 21 18.375 21ZM6.5625 7.875V5.90625C6.5625 5.53711 6.44971 5.1748 6.22412 4.81934C5.99854 4.46387 5.74902 4.21094 5.47559 4.06055C5.20215 3.91016 4.99023 3.90332 4.83984 4.04004L3.34277 5.55762C2.93262 5.96777 2.7002 6.51807 2.64551 7.2085C2.59082 7.89893 2.69678 8.65088 2.96338 9.46436C3.22998 10.2778 3.65723 11.1392 4.24512 12.0483C4.83301 12.9575 5.53711 13.8223 6.35742 14.6426C7.17773 15.4629 8.04248 16.167 8.95166 16.7549C9.86084 17.3428 10.7222 17.7734 11.5356 18.0469C12.3491 18.3203 13.1011 18.4297 13.7915 18.375C14.4819 18.3203 15.0322 18.0879 15.4424 17.6777L16.96 16.1602C17.0967 16.0234 17.0898 15.8149 16.9395 15.5347C16.7891 15.2544 16.5361 15.0015 16.1807 14.7759C15.8252 14.5503 15.4629 14.4375 15.0938 14.4375H13.125L11.792 15.2578C11.1768 15.0938 10.418 14.6494 9.51562 13.9248C8.61328 13.2002 7.7998 12.3867 7.0752 11.4844C6.35059 10.582 5.90625 9.82324 5.74219 9.20801L6.5625 7.875ZM14.3965 11.1562L15.7295 11.3818C15.6201 9.74121 14.9844 8.33984 13.8223 7.17773C12.6602 6.01562 11.2656 5.37988 9.63867 5.27051L9.84375 6.60352C11.0332 6.75391 12.0518 7.25293 12.8994 8.10059C13.7471 8.94824 14.2461 9.9668 14.3965 11.1562ZM10.0898 7.97754L10.3359 9.4541C10.8691 9.71387 11.2725 10.1172 11.5459 10.6641L13.0225 10.9102C12.8447 10.1855 12.4927 9.56006 11.9663 9.03369C11.4399 8.50732 10.8145 8.15527 10.0898 7.97754ZM9.1875 2.625L9.41309 3.95801C10.7803 3.98535 12.0415 4.34424 13.1968 5.03467C14.3521 5.7251 15.2749 6.64795 15.9653 7.80322C16.6558 8.9585 17.0146 10.2197 17.042 11.5869L18.375 11.8125C18.375 10.5684 18.1323 9.37891 17.647 8.24414C17.1616 7.10938 16.5088 6.13184 15.6885 5.31152C14.8682 4.49121 13.8906 3.83838 12.7559 3.35303C11.6211 2.86768 10.4316 2.625 9.1875 2.625Z" fill="url(#paint0_linear)"/>
<defs>
<linearGradient id="paint0_linear" x1="1.95082" y1="7.14583" x2="20.1359" y2="7.58084" gradientUnits="userSpaceOnUse">
<stop stop-color="#F5BE87"/>
<stop offset="1" stop-color="#CA8E5A"/>
</linearGradient>
</defs>
</svg>
